# Blender v2.79 (sub 0) OBJ File: ''
# www.blender.org
o Torus
v 1.200000 0.000000 0.000000
v 1.061803 0.190211 0.000000
v 0.838197 0.117557 0.000000
v 0.838197 -0.117557 0.000000
v 1.061803 -0.190211 0.000000
v 0.748188 0.000000 -0.938198
v 0.662023 0.190211 -0.830151
v 0.522607 0.117557 -0.655329
v 0.522607 -0.117557 -0.655329
v 0.662023 -0.190211 -0.830151
v -0.267025 0.000000 -1.169914
v -0.236273 0.190211 -1.035182
v -0.186516 0.117557 -0.817181
v -0.186516 -0.117557 -0.817181
v -0.236273 -0.190211 -1.035182
v -1.081163 0.000000 -0.520661
v -0.956652 0.190211 -0.460699
v -0.755189 0.117557 -0.363680
v -0.755189 -0.117557 -0.363680
v -0.956652 -0.190211 -0.460699
v -1.081163 0.000000 0.520660
v -0.956652 0.190211 0.460699
v -0.755189 0.117557 0.363680
v -0.755189 -0.117557 0.363680
v -0.956652 -0.190211 0.460699
v -0.267025 0.000000 1.169914
v -0.236273 0.190211 1.035182
v -0.186516 0.117557 0.817181
v -0.186516 -0.117557 0.817181
v -0.236273 -0.190211 1.035182
v 0.748187 0.000000 0.938198
v 0.662023 0.190211 0.830152
v 0.522607 0.117557 0.655329
v 0.522607 -0.117557 0.655329
v 0.662023 -0.190211 0.830152
vn 0.7538 0.5477 -0.3630
vn -0.3057 0.9407 0.1472
vn -0.9010 0.0000 0.4339
vn -0.3057 -0.9407 0.1472
vn 0.7538 -0.5477 -0.3630
vn 0.1862 0.5477 -0.8157
vn -0.0755 0.9407 0.3307
vn -0.2225 0.0000 0.9749
vn -0.0755 -0.9407 0.3307
vn 0.1862 -0.5477 -0.8157
vn -0.5217 0.5477 -0.6541
vn 0.2115 0.9407 0.2652
vn 0.6235 0.0000 0.7818
vn 0.2115 -0.9407 0.2652
vn -0.5217 -0.5477 -0.6541
vn -0.8367 0.5477 -0.0000
vn 0.3392 0.9407 0.0000
vn 1.0000 0.0000 0.0000
vn 0.3392 -0.9407 0.0000
vn -0.8367 -0.5477 -0.0000
vn -0.5217 0.5477 0.6541
vn 0.2115 0.9407 -0.2652
vn 0.6235 0.0000 -0.7818
vn 0.2115 -0.9407 -0.2652
vn -0.5217 -0.5477 0.6541
vn 0.1862 0.5477 0.8157
vn -0.0755 0.9407 -0.3307
vn -0.2225 0.0000 -0.9749
vn -0.0755 -0.9407 -0.3307
vn 0.1862 -0.5477 0.8157
vn 0.7538 0.5477 0.3630
vn -0.3057 0.9407 -0.1472
vn -0.9010 0.0000 -0.4339
vn -0.3057 -0.9407 -0.1472
vn 0.7538 -0.5477 0.3630
s off
f 6//1 2//1 1//1
f 7//2 3//2 2//2
f 8//3 4//3 3//3
f 9//4 5//4 4//4
f 10//5 1//5 5//5
f 11//6 7//6 6//6
f 12//7 8//7 7//7
f 13//8 9//8 8//8
f 14//9 10//9 9//9
f 10//10 11//10 6//10
f 16//11 12//11 11//11
f 17//12 13//12 12//12
f 18//13 14//13 13//13
f 14//14 20//14 15//14
f 20//15 11//15 15//15
f 16//16 22//16 17//16
f 22//17 18//17 17//17
f 23//18 19//18 18//18
f 24//19 20//19 19//19
f 25//20 16//20 20//20
f 26//21 22//21 21//21
f 22//22 28//22 23//22
f 28//23 24//23 23//23
f 29//24 25//24 24//24
f 30//25 21//25 25//25
f 31//26 27//26 26//26
f 32//27 28//27 27//27
f 33//28 29//28 28//28
f 34//29 30//29 29//29
f 30//30 31//30 26//30
f 1//31 32//31 31//31
f 32//32 3//32 33//32
f 3//33 34//33 33//33
f 4//34 35//34 34//34
f 5//35 31//35 35//35
f 6//1 7//1 2//1
f 7//2 8//2 3//2
f 8//3 9//3 4//3
f 9//4 10//4 5//4
f 10//5 6//5 1//5
f 11//6 12//6 7//6
f 12//7 13//7 8//7
f 13//8 14//8 9//8
f 14//9 15//9 10//9
f 10//10 15//10 11//10
f 16//11 17//11 12//11
f 17//12 18//12 13//12
f 18//13 19//13 14//13
f 14//14 19//14 20//14
f 20//15 16//15 11//15
f 16//16 21//16 22//16
f 22//17 23//17 18//17
f 23//18 24//18 19//18
f 24//19 25//19 20//19
f 25//20 21//20 16//20
f 26//21 27//21 22//21
f 22//22 27//22 28//22
f 28//23 29//23 24//23
f 29//24 30//24 25//24
f 30//25 26//25 21//25
f 31//26 32//26 27//26
f 32//27 33//27 28//27
f 33//28 34//28 29//28
f 34//29 35//29 30//29
f 30//30 35//30 31//30
f 1//31 2//31 32//31
f 32//32 2//32 3//32
f 3//33 4//33 34//33
f 4//34 5//34 35//34
f 5//35 1//35 31//35
