# Blender v2.79 (sub 0) OBJ File: ''
# www.blender.org
o Torus.002
v 0.870000 0.000000 0.000000
v 0.800291 0.214542 0.000000
v 0.617791 0.347136 0.000000
v 0.392209 0.347136 0.000000
v 0.209709 0.214542 0.000000
v 0.140000 0.000000 0.000000
v 0.209709 -0.214542 0.000000
v 0.392209 -0.347136 0.000000
v 0.617791 -0.347136 0.000000
v 0.800291 -0.214542 0.000000
v 0.703845 0.000000 -0.511373
v 0.647449 0.214542 -0.470399
v 0.499804 0.347136 -0.363129
v 0.317304 0.347136 -0.230535
v 0.169658 0.214542 -0.123264
v 0.113262 0.000000 -0.082290
v 0.169658 -0.214542 -0.123264
v 0.317304 -0.347136 -0.230535
v 0.499804 -0.347136 -0.363129
v 0.647449 -0.214542 -0.470399
v 0.268845 0.000000 -0.827419
v 0.247304 0.214542 -0.761122
v 0.190908 0.347136 -0.587554
v 0.121199 0.347136 -0.373013
v 0.064804 0.214542 -0.199445
v 0.043262 0.000000 -0.133148
v 0.064804 -0.214542 -0.199445
v 0.121199 -0.347136 -0.373013
v 0.190908 -0.347136 -0.587554
v 0.247304 -0.214542 -0.761122
v -0.268845 0.000000 -0.827419
v -0.247304 0.214542 -0.761122
v -0.190908 0.347136 -0.587554
v -0.121199 0.347136 -0.373013
v -0.064804 0.214542 -0.199445
v -0.043262 0.000000 -0.133148
v -0.064804 -0.214542 -0.199445
v -0.121199 -0.347136 -0.373013
v -0.190908 -0.347136 -0.587554
v -0.247304 -0.214542 -0.761122
v -0.703845 0.000000 -0.511373
v -0.647449 0.214542 -0.470399
v -0.499804 0.347136 -0.363128
v -0.317304 0.347136 -0.230534
v -0.169658 0.214542 -0.123264
v -0.113262 0.000000 -0.082290
v -0.169658 -0.214542 -0.123264
v -0.317304 -0.347136 -0.230534
v -0.499804 -0.347136 -0.363128
v -0.647449 -0.214542 -0.470399
v -0.870000 0.000000 -0.000000
v -0.800291 0.214542 -0.000000
v -0.617791 0.347136 -0.000000
v -0.392209 0.347136 -0.000000
v -0.209709 0.214542 -0.000000
v -0.140000 0.000000 -0.000000
v -0.209709 -0.214542 -0.000000
v -0.392209 -0.347136 -0.000000
v -0.617791 -0.347136 -0.000000
v -0.800291 -0.214542 -0.000000
v -0.703845 0.000000 0.511373
v -0.647449 0.214542 0.470399
v -0.499804 0.347136 0.363128
v -0.317304 0.347136 0.230534
v -0.169658 0.214542 0.123264
v -0.113262 0.000000 0.082290
v -0.169658 -0.214542 0.123264
v -0.317304 -0.347136 0.230534
v -0.499804 -0.347136 0.363128
v -0.647449 -0.214542 0.470399
v -0.268845 0.000000 0.827419
v -0.247304 0.214542 0.761122
v -0.190908 0.347136 0.587554
v -0.121199 0.347136 0.373013
v -0.064804 0.214542 0.199445
v -0.043262 0.000000 0.133148
v -0.064804 -0.214542 0.199445
v -0.121199 -0.347136 0.373013
v -0.190908 -0.347136 0.587554
v -0.247304 -0.214542 0.761122
v 0.268845 0.000000 0.827419
v 0.247304 0.214542 0.761122
v 0.190908 0.347136 0.587554
v 0.121199 0.347136 0.373013
v 0.064804 0.214542 0.199445
v 0.043262 0.000000 0.133148
v 0.064804 -0.214542 0.199445
v 0.121199 -0.347136 0.373013
v 0.190908 -0.347136 0.587554
v 0.247304 -0.214542 0.761122
v 0.703845 0.000000 0.511374
v 0.647449 0.214542 0.470400
v 0.499803 0.347136 0.363129
v 0.317303 0.347136 0.230535
v 0.169658 0.214542 0.123264
v 0.113262 0.000000 0.082290
v 0.169658 -0.214542 0.123264
v 0.317303 -0.347136 0.230535
v 0.499803 -0.347136 0.363129
v 0.647449 -0.214542 0.470400
vn 0.9087 0.2952 -0.2952
vn 0.5774 0.7947 -0.1876
vn 0.0000 1.0000 0.0000
vn -0.5774 0.7947 0.1876
vn -0.9087 0.2952 0.2952
vn -0.9087 -0.2952 0.2952
vn -0.5774 -0.7947 0.1876
vn 0.0000 -1.0000 0.0000
vn 0.5774 -0.7947 -0.1876
vn 0.9087 -0.2952 -0.2952
vn 0.5616 0.2952 -0.7730
vn 0.3568 0.7947 -0.4911
vn -0.3568 0.7947 0.4911
vn -0.5616 0.2952 0.7730
vn -0.5616 -0.2952 0.7730
vn -0.3568 -0.7947 0.4911
vn 0.3568 -0.7947 -0.4911
vn 0.5616 -0.2952 -0.7730
vn 0.0000 0.2952 -0.9554
vn 0.0000 0.7947 -0.6071
vn 0.0000 0.7947 0.6071
vn 0.0000 0.2952 0.9554
vn 0.0000 -0.2952 0.9554
vn 0.0000 -0.7947 0.6071
vn 0.0000 -0.7947 -0.6071
vn 0.0000 -0.2952 -0.9554
vn -0.5616 0.2952 -0.7730
vn -0.3568 0.7947 -0.4911
vn 0.3568 0.7947 0.4911
vn 0.5616 0.2952 0.7730
vn 0.5616 -0.2952 0.7730
vn 0.3568 -0.7947 0.4911
vn -0.3568 -0.7947 -0.4911
vn -0.5616 -0.2952 -0.7730
vn -0.9087 0.2952 -0.2952
vn -0.5774 0.7947 -0.1876
vn 0.5773 0.7947 0.1876
vn 0.9087 0.2952 0.2952
vn 0.9087 -0.2952 0.2952
vn 0.5773 -0.7947 0.1876
vn -0.5774 -0.7947 -0.1876
vn -0.9087 -0.2952 -0.2952
vn 0.5774 0.7947 0.1876
vn 0.5774 -0.7947 0.1876
vn 0.5773 0.7947 -0.1876
vn -0.5773 -0.7947 -0.1876
s off
f 11//1 2//1 1//1
f 12//2 3//2 2//2
f 13//3 4//3 3//3
f 14//4 5//4 4//4
f 15//5 6//5 5//5
f 16//6 7//6 6//6
f 17//7 8//7 7//7
f 18//8 9//8 8//8
f 19//9 10//9 9//9
f 20//10 1//10 10//10
f 11//11 22//11 12//11
f 22//12 13//12 12//12
f 23//3 14//3 13//3
f 24//13 15//13 14//13
f 25//14 16//14 15//14
f 26//15 17//15 16//15
f 27//16 18//16 17//16
f 28//8 19//8 18//8
f 29//17 20//17 19//17
f 30//18 11//18 20//18
f 31//19 22//19 21//19
f 22//20 33//20 23//20
f 33//3 24//3 23//3
f 34//21 25//21 24//21
f 35//22 26//22 25//22
f 26//23 37//23 27//23
f 37//24 28//24 27//24
f 38//8 29//8 28//8
f 39//25 30//25 29//25
f 40//26 21//26 30//26
f 31//27 42//27 32//27
f 42//28 33//28 32//28
f 33//3 44//3 34//3
f 34//29 45//29 35//29
f 45//30 36//30 35//30
f 46//31 37//31 36//31
f 47//32 38//32 37//32
f 48//8 39//8 38//8
f 39//33 50//33 40//33
f 40//34 41//34 31//34
f 51//35 42//35 41//35
f 52//36 43//36 42//36
f 53//3 44//3 43//3
f 54//37 45//37 44//37
f 55//38 46//38 45//38
f 56//39 47//39 46//39
f 57//40 48//40 47//40
f 48//8 59//8 49//8
f 59//41 50//41 49//41
f 60//42 41//42 50//42
f 51//5 62//5 52//5
f 62//4 53//4 52//4
f 53//3 64//3 54//3
f 64//2 55//2 54//2
f 65//1 56//1 55//1
f 66//10 57//10 56//10
f 67//9 58//9 57//9
f 68//8 59//8 58//8
f 69//7 60//7 59//7
f 70//6 51//6 60//6
f 71//14 62//14 61//14
f 62//13 73//13 63//13
f 73//3 64//3 63//3
f 74//12 65//12 64//12
f 75//11 66//11 65//11
f 76//18 67//18 66//18
f 67//17 78//17 68//17
f 78//8 69//8 68//8
f 79//16 70//16 69//16
f 70//15 71//15 61//15
f 71//22 82//22 72//22
f 82//21 73//21 72//21
f 83//3 74//3 73//3
f 84//20 75//20 74//20
f 75//19 86//19 76//19
f 86//26 77//26 76//26
f 87//25 78//25 77//25
f 88//8 79//8 78//8
f 79//24 90//24 80//24
f 90//23 71//23 80//23
f 91//30 82//30 81//30
f 92//29 83//29 82//29
f 93//3 84//3 83//3
f 84//28 95//28 85//28
f 95//27 86//27 85//27
f 96//34 87//34 86//34
f 87//33 98//33 88//33
f 88//8 99//8 89//8
f 99//32 90//32 89//32
f 90//31 91//31 81//31
f 1//38 92//38 91//38
f 2//43 93//43 92//43
f 3//3 94//3 93//3
f 4//36 95//36 94//36
f 5//35 96//35 95//35
f 6//42 97//42 96//42
f 97//41 8//41 98//41
f 8//8 99//8 98//8
f 99//44 10//44 100//44
f 10//39 91//39 100//39
f 11//1 12//1 2//1
f 12//45 13//45 3//45
f 13//3 14//3 4//3
f 14//4 15//4 5//4
f 15//5 16//5 6//5
f 16//6 17//6 7//6
f 17//7 18//7 8//7
f 18//8 19//8 9//8
f 19//9 20//9 10//9
f 20//10 11//10 1//10
f 11//11 21//11 22//11
f 22//12 23//12 13//12
f 23//3 24//3 14//3
f 24//13 25//13 15//13
f 25//14 26//14 16//14
f 26//15 27//15 17//15
f 27//16 28//16 18//16
f 28//8 29//8 19//8
f 29//17 30//17 20//17
f 30//18 21//18 11//18
f 31//19 32//19 22//19
f 22//20 32//20 33//20
f 33//3 34//3 24//3
f 34//21 35//21 25//21
f 35//22 36//22 26//22
f 26//23 36//23 37//23
f 37//24 38//24 28//24
f 38//8 39//8 29//8
f 39//25 40//25 30//25
f 40//26 31//26 21//26
f 31//27 41//27 42//27
f 42//28 43//28 33//28
f 33//3 43//3 44//3
f 34//29 44//29 45//29
f 45//30 46//30 36//30
f 46//31 47//31 37//31
f 47//32 48//32 38//32
f 48//8 49//8 39//8
f 39//33 49//33 50//33
f 40//34 50//34 41//34
f 51//35 52//35 42//35
f 52//36 53//36 43//36
f 53//3 54//3 44//3
f 54//43 55//43 45//43
f 55//38 56//38 46//38
f 56//39 57//39 47//39
f 57//44 58//44 48//44
f 48//8 58//8 59//8
f 59//46 60//46 50//46
f 60//42 51//42 41//42
f 51//5 61//5 62//5
f 62//4 63//4 53//4
f 53//3 63//3 64//3
f 64//45 65//45 55//45
f 65//1 66//1 56//1
f 66//10 67//10 57//10
f 67//9 68//9 58//9
f 68//8 69//8 59//8
f 69//7 70//7 60//7
f 70//6 61//6 51//6
f 71//14 72//14 62//14
f 62//13 72//13 73//13
f 73//3 74//3 64//3
f 74//12 75//12 65//12
f 75//11 76//11 66//11
f 76//18 77//18 67//18
f 67//17 77//17 78//17
f 78//8 79//8 69//8
f 79//16 80//16 70//16
f 70//15 80//15 71//15
f 71//22 81//22 82//22
f 82//21 83//21 73//21
f 83//3 84//3 74//3
f 84//20 85//20 75//20
f 75//19 85//19 86//19
f 86//26 87//26 77//26
f 87//25 88//25 78//25
f 88//8 89//8 79//8
f 79//24 89//24 90//24
f 90//23 81//23 71//23
f 91//30 92//30 82//30
f 92//29 93//29 83//29
f 93//3 94//3 84//3
f 84//28 94//28 95//28
f 95//27 96//27 86//27
f 96//34 97//34 87//34
f 87//33 97//33 98//33
f 88//8 98//8 99//8
f 99//32 100//32 90//32
f 90//31 100//31 91//31
f 1//38 2//38 92//38
f 2//43 3//43 93//43
f 3//3 4//3 94//3
f 4//36 5//36 95//36
f 5//35 6//35 96//35
f 6//42 7//42 97//42
f 97//41 7//41 8//41
f 8//8 9//8 99//8
f 99//44 9//44 10//44
f 10//39 1//39 91//39
